<svg width="24" height="24" viewBox="0 0 24 24" fill="none" xmlns="http://www.w3.org/2000/svg">
<path d="M12.6973 3.5H11.3028C10.5883 3.5 10.231 3.5 9.91049 3.612C9.71481 3.68039 9.53095 3.77879 9.3655 3.90367C9.09456 4.10816 8.89638 4.40544 8.5 5C8.297 5.30452 7.99776 5.75337 7.87849 5.87871C7.58296 6.18927 7.19545 6.39666 6.77311 6.47029C6.60266 6.5 6.41967 6.5 6.05369 6.5C5.07362 6.5 4.58358 6.5 4.1829 6.61342C3.18056 6.89716 2.39716 7.68055 2.11343 8.68289C2 9.08357 2 9.57361 2 10.5537V14.5C2 17.3284 2 18.7426 2.87868 19.6213C3.75736 20.5 5.17158 20.5 8 20.5H16C18.8285 20.5 20.2427 20.5 21.1214 19.6213C22 18.7426 22 17.3284 22 14.5V10.5537C22 9.57361 22 9.08357 21.8866 8.68289C21.6029 7.68055 20.8195 6.89716 19.8172 6.61342C19.4165 6.5 18.9264 6.5 17.9464 6.5C17.5804 6.5 17.3974 6.5 17.2269 6.47029C16.8046 6.39666 16.4171 6.18927 16.1216 5.87871C16.0023 5.75336 15.7031 5.30451 15.5 5C15.1037 4.40544 14.9055 4.10816 14.6346 3.90367C14.4691 3.77879 14.2852 3.68039 14.0896 3.612C13.7691 3.5 13.4118 3.5 12.6973 3.5Z" stroke="black" stroke-width="1.5" stroke-linecap="round" stroke-linejoin="round"/>
<path d="M15 10.5V10.51" stroke="black" stroke-width="2" stroke-linecap="round" stroke-linejoin="round"/>
<path d="M9 10.5V10.51" stroke="black" stroke-width="2" stroke-linecap="round" stroke-linejoin="round"/>
<path d="M8.5 14.5C9.29811 15.7144 10.5688 16.5 12 16.5C13.4313 16.5 14.7019 15.7144 15.5 14.5" stroke="black" stroke-width="1.5" stroke-linecap="round" stroke-linejoin="round"/>
</svg>
