<svg width="185" height="180" viewBox="0 0 185 180" fill="none" xmlns="http://www.w3.org/2000/svg">
<path fill-rule="evenodd" clip-rule="evenodd" d="M10.4499 0C4.6787 0 0 4.69171 0 10.4789C0 16.2662 4.6787 20.9579 10.4499 20.9579H168.148C173.919 20.9579 178.598 16.2662 178.598 10.4789C178.598 4.69171 173.919 0 168.148 0H10.4499ZM0.72959 59.6157C-2.1517e-06 61.1628 0 63.1614 0 67.1605C0 71.1597 -2.1517e-06 73.1583 0.72959 74.7054C1.48138 76.2995 2.76122 77.5829 4.35095 78.3368C5.89374 79.0684 7.88681 79.0684 11.8749 79.0684H43.2245C47.2126 79.0684 49.2057 79.0684 50.7484 78.3368C52.3382 77.5829 53.618 76.2995 54.3698 74.7054C55.0994 73.1583 55.0994 71.1597 55.0994 67.1605C55.0994 63.1614 55.0994 61.1628 54.3698 59.6157C53.618 58.0215 52.3382 56.7381 50.7484 55.9843C49.2057 55.2526 47.2126 55.2526 43.2245 55.2526H11.8749C7.88681 55.2526 5.89374 55.2526 4.35095 55.9843C2.76122 56.7381 1.48138 58.0215 0.72959 59.6157ZM0 135.083C0 130.815 1.58547e-06 128.681 0.828393 127.051C1.55701 125.617 2.7196 124.451 4.14955 123.72C5.77498 122.889 7.90392 122.889 12.1599 122.889H42.9395C47.1955 122.889 49.3244 122.889 50.9498 123.72C52.3798 124.451 53.5424 125.617 54.271 127.051C55.0994 128.681 55.0994 130.815 55.0994 135.083V166.901C55.0994 171.169 55.0994 173.304 54.271 174.934C53.5424 176.368 52.3798 177.533 50.9498 178.264C49.3244 179.095 47.1955 179.095 42.9395 179.095H12.1599C7.90392 179.095 5.77498 179.095 4.14955 178.264C2.7196 177.533 1.55701 176.368 0.828393 174.934C1.58547e-06 173.304 0 171.169 0 166.901V135.083ZM65.4277 39.4085C64.5993 41.0394 64.5993 43.1733 64.5993 47.4411V80.2116C64.5993 84.4794 64.5993 86.6142 65.4277 88.2442C66.1563 89.6781 67.3189 90.8439 68.7488 91.5746C70.3743 92.4053 72.5032 92.4053 76.7592 92.4053H107.539C111.795 92.4053 113.924 92.4053 115.549 91.5746C116.979 90.8439 118.142 89.6781 118.87 88.2442C119.699 86.6142 119.699 84.4794 119.699 80.2116V47.4411C119.699 43.1733 119.699 41.0384 118.87 39.4085C118.142 37.9745 116.979 36.8087 115.549 36.0781C113.924 35.2474 111.795 35.2474 107.539 35.2474H76.7592C72.5032 35.2474 70.3743 35.2474 68.7488 36.0781C67.3189 36.8087 66.1563 37.9745 65.4277 39.4085ZM64.5993 167.187C64.5993 163.188 64.5993 161.189 65.3289 159.642C66.0807 158.048 67.3605 156.764 68.9502 156.011C70.493 155.279 72.4861 155.279 76.4742 155.279H107.824C111.812 155.279 113.805 155.279 115.348 156.011C116.937 156.764 118.217 158.048 118.969 159.642C119.699 161.189 119.699 163.188 119.699 167.187C119.699 171.186 119.699 173.185 118.969 174.732C118.217 176.326 116.937 177.609 115.348 178.363C113.805 179.095 111.812 179.095 107.824 179.095H76.4742C72.4861 179.095 70.493 179.095 68.9502 178.363C67.3605 177.609 66.0807 176.326 65.3289 174.732C64.5993 173.185 64.5993 171.186 64.5993 167.187ZM130.027 96.5664C129.199 98.1963 129.199 100.331 129.199 104.599V132.606C129.199 136.874 129.199 139.009 130.027 140.639C130.756 142.073 131.918 143.239 133.348 143.969C134.974 144.8 137.103 144.8 141.358 144.8H172.138C176.394 144.8 178.523 144.8 180.148 143.969C181.578 143.239 182.741 142.073 183.47 140.639C184.298 139.009 184.298 136.874 184.298 132.606V104.599C184.298 100.331 184.298 98.1963 183.47 96.5664C182.741 95.1324 181.578 93.9666 180.148 93.236C178.523 92.4053 176.394 92.4053 172.138 92.4053H141.358C137.103 92.4053 134.974 92.4053 133.348 93.236C131.918 93.9666 130.756 95.1324 130.027 96.5664Z" fill="url(#paint0_linear_808_889)"/>
<defs>
<linearGradient id="paint0_linear_808_889" x1="92.149" y1="0" x2="92.149" y2="179.095" gradientUnits="userSpaceOnUse">
<stop stop-color="#DEDEDE"/>
<stop offset="1" stop-color="#F2F2F2"/>
</linearGradient>
</defs>
</svg>
