<svg width="48" height="62" viewBox="0 0 48 62" fill="none" xmlns="http://www.w3.org/2000/svg">
<path d="M23.8545 61.3476C18.8937 61.3285 14.6247 60.1041 11.0477 57.6742C7.49031 55.245 4.75024 51.726 2.82746 47.1172C0.923684 42.5083 -0.0187182 36.9646 0.000281614 30.4861C0.000281614 24.0266 0.952183 18.5214 2.85596 13.9703C4.77874 9.41994 7.51881 5.95871 11.0762 3.58666C14.6532 1.19555 18.9127 0 23.8545 0C28.7964 0 33.046 1.19555 36.6034 3.58666C40.1798 5.97776 42.9297 9.44852 44.8531 13.9989C46.7759 18.5303 47.7274 24.026 47.7078 30.4861C47.7078 36.9837 46.7464 42.5369 44.8237 47.1457C42.9199 51.7546 40.1893 55.2739 36.6319 57.7037C33.0745 60.133 28.8154 61.3476 23.8545 61.3476ZM23.8545 50.9639C27.2384 50.9639 29.9402 49.2574 31.9598 45.8444C33.9795 42.4315 34.9792 37.312 34.959 30.4861C34.959 25.9929 34.4976 22.2522 33.5748 19.2641C32.6711 16.2748 31.3826 14.0281 29.7093 12.5242C28.0563 11.0204 26.1047 10.2684 23.8545 10.2684C20.4896 10.2684 17.7974 11.9555 15.7777 15.3297C13.7587 18.7046 12.7397 23.7567 12.7207 30.4861C12.7207 35.0365 13.1725 38.835 14.0763 41.8815C14.9997 44.909 16.2977 47.1845 17.9703 48.708C19.6435 50.2119 21.6049 50.9639 23.8545 50.9639Z" fill="#E0E0E0"/>
</svg>
